<?xml version="1.0" encoding="UTF-8" standalone="no"?>
<!DOCTYPE svg PUBLIC "-//W3C//DTD SVG 1.1//EN"
 "http://www.w3.org/Graphics/SVG/1.1/DTD/svg11.dtd">
<!-- Generated by graphviz version 2.40.1 (20161225.0304)
 -->
<!-- Title: %3 Pages: 1 -->
<svg width="1429pt" height="827pt"
 viewBox="0.00 0.00 1429.00 827.00" xmlns="http://www.w3.org/2000/svg" xmlns:xlink="http://www.w3.org/1999/xlink">
<g id="graph0" class="graph" transform="scale(1 1) rotate(0) translate(4 823)">
<title>%3</title>
<polygon fill="#ffffff" stroke="transparent" points="-4,4 -4,-823 1425,-823 1425,4 -4,4"/>
<!-- :Abilio_Silva_Ramalho -->
<g id="node1" class="node">
<title>:Abilio_Silva_Ramalho</title>
<ellipse fill="none" stroke="#000000" cx="1043" cy="-801" rx="94.7833" ry="18"/>
<text text-anchor="middle" x="1043" y="-797.3" font-family="Times,serif" font-size="14.00" fill="#000000">:Abilio_Silva_Ramalho</text>
</g>
<!-- owl:NamedIndividual -->
<g id="node2" class="node">
<title>owl:NamedIndividual</title>
<ellipse fill="none" stroke="#000000" cx="982" cy="-18" rx="88.2844" ry="18"/>
<text text-anchor="middle" x="982" y="-14.3" font-family="Times,serif" font-size="14.00" fill="#000000">owl:NamedIndividual</text>
</g>
<!-- :Abilio_Silva_Ramalho&#45;&gt;owl:NamedIndividual -->
<g id="edge1" class="edge">
<title>:Abilio_Silva_Ramalho&#45;&gt;owl:NamedIndividual</title>
<path fill="none" stroke="#000000" d="M1121.9593,-790.9094C1201.0127,-778.5359 1311,-754.1128 1311,-714 1311,-714 1311,-714 1311,-409.5 1311,-335.0996 1158.4653,-198.2928 1111,-141 1077.4879,-100.5494 1070.1272,-89.0481 1031,-54 1026.2528,-49.7477 1021.0194,-45.4988 1015.7931,-41.4882"/>
<polygon fill="#000000" stroke="#000000" points="1017.7645,-38.5923 1007.6571,-35.4157 1013.5775,-44.202 1017.7645,-38.5923"/>
<text text-anchor="middle" x="1332.5" y="-405.8" font-family="Times,serif" font-size="14.00" fill="#000000">rdf:type</text>
</g>
<!-- :Pessoa -->
<g id="node3" class="node">
<title>:Pessoa</title>
<ellipse fill="none" stroke="#000000" cx="1194" cy="-18" rx="37.0935" ry="18"/>
<text text-anchor="middle" x="1194" y="-14.3" font-family="Times,serif" font-size="14.00" fill="#000000">:Pessoa</text>
</g>
<!-- :Abilio_Silva_Ramalho&#45;&gt;:Pessoa -->
<g id="edge2" class="edge">
<title>:Abilio_Silva_Ramalho&#45;&gt;:Pessoa</title>
<path fill="none" stroke="#000000" d="M1133.2145,-795.2389C1232.4365,-786.3623 1378,-764.7001 1378,-714 1378,-714 1378,-714 1378,-105 1378,-74.4754 1358.086,-69.8517 1332,-54 1304.2031,-37.1086 1268.5953,-28.0732 1240.5127,-23.2791"/>
<polygon fill="#000000" stroke="#000000" points="1240.9599,-19.8064 1230.5353,-21.6981 1239.8643,-26.7201 1240.9599,-19.8064"/>
<text text-anchor="middle" x="1399.5" y="-405.8" font-family="Times,serif" font-size="14.00" fill="#000000">rdf:type</text>
</g>
<!-- :Custodia_Azevedo_1867 -->
<g id="node4" class="node">
<title>:Custodia_Azevedo_1867</title>
<ellipse fill="none" stroke="#000000" cx="874" cy="-714" rx="102.0819" ry="18"/>
<text text-anchor="middle" x="874" y="-710.3" font-family="Times,serif" font-size="14.00" fill="#000000">:Custodia_Azevedo_1867</text>
</g>
<!-- :Abilio_Silva_Ramalho&#45;&gt;:Custodia_Azevedo_1867 -->
<g id="edge3" class="edge">
<title>:Abilio_Silva_Ramalho&#45;&gt;:Custodia_Azevedo_1867</title>
<path fill="none" stroke="#000000" d="M1010.0139,-784.019C983.2304,-770.231 945.2813,-750.6951 916.2707,-735.7607"/>
<polygon fill="#000000" stroke="#000000" points="917.6843,-732.5519 907.1913,-731.0866 914.4803,-738.7756 917.6843,-732.5519"/>
<text text-anchor="middle" x="994" y="-753.8" font-family="Times,serif" font-size="14.00" fill="#000000">:temMae</text>
</g>
<!-- :Manuel_Silva_Ramalho_1866 -->
<g id="node5" class="node">
<title>:Manuel_Silva_Ramalho_1866</title>
<ellipse fill="none" stroke="#000000" cx="640" cy="-366" rx="121.5784" ry="18"/>
<text text-anchor="middle" x="640" y="-362.3" font-family="Times,serif" font-size="14.00" fill="#000000">:Manuel_Silva_Ramalho_1866</text>
</g>
<!-- :Abilio_Silva_Ramalho&#45;&gt;:Manuel_Silva_Ramalho_1866 -->
<g id="edge4" class="edge">
<title>:Abilio_Silva_Ramalho&#45;&gt;:Manuel_Silva_Ramalho_1866</title>
<path fill="none" stroke="#000000" d="M952.9586,-795.276C879.066,-789.6392 780.8385,-779.721 744,-765 661.1271,-731.8833 623.0307,-724.7633 583,-645 540.2041,-559.7269 594.3259,-444.4646 623.5617,-392.8896"/>
<polygon fill="#000000" stroke="#000000" points="626.7149,-394.429 628.7021,-384.0221 620.6588,-390.9183 626.7149,-394.429"/>
<text text-anchor="middle" x="589.5" y="-579.8" font-family="Times,serif" font-size="14.00" fill="#000000">:temPai</text>
</g>
<!-- :Rui_Silva_Ramalho -->
<g id="node6" class="node">
<title>:Rui_Silva_Ramalho</title>
<ellipse fill="none" stroke="#000000" cx="976" cy="-453" rx="85.2851" ry="18"/>
<text text-anchor="middle" x="976" y="-449.3" font-family="Times,serif" font-size="14.00" fill="#000000">:Rui_Silva_Ramalho</text>
</g>
<!-- :Abilio_Silva_Ramalho&#45;&gt;:Rui_Silva_Ramalho -->
<g id="edge39" class="edge">
<title>:Abilio_Silva_Ramalho&#45;&gt;:Rui_Silva_Ramalho</title>
<path fill="none" stroke="#000000" d="M1044.7536,-782.9917C1048.0464,-744.5465 1053.5846,-651.7697 1039,-576 1031.1833,-535.3906 1026.8577,-524.7096 1006,-489 1002.307,-482.6774 997.5028,-476.3509 992.8251,-470.8047"/>
<text text-anchor="middle" x="1066.5" y="-623.3" font-family="Times,serif" font-size="14.00" fill="#000000">:irmao</text>
</g>
<!-- :Joana_Silva_Ramalho -->
<g id="node11" class="node">
<title>:Joana_Silva_Ramalho</title>
<ellipse fill="none" stroke="#000000" cx="284" cy="-105" rx="92.0841" ry="18"/>
<text text-anchor="middle" x="284" y="-101.3" font-family="Times,serif" font-size="14.00" fill="#000000">:Joana_Silva_Ramalho</text>
</g>
<!-- :Abilio_Silva_Ramalho&#45;&gt;:Joana_Silva_Ramalho -->
<g id="edge47" class="edge">
<title>:Abilio_Silva_Ramalho&#45;&gt;:Joana_Silva_Ramalho</title>
<path fill="none" stroke="#000000" d="M949.0625,-798.0327C692.6871,-789.3174 0,-761.3853 0,-714 0,-714 0,-714 0,-322.5 0,-212.2824 136.4909,-150.3516 220.2268,-122.7283"/>
<polygon fill="#000000" stroke="#000000" points="221.4683,-126.0055 229.9133,-119.6076 219.3218,-119.3428 221.4683,-126.0055"/>
<text text-anchor="middle" x="9.5" y="-449.3" font-family="Times,serif" font-size="14.00" fill="#000000">:tio</text>
</g>
<!-- :Joao_Silva_Ramalho -->
<g id="node13" class="node">
<title>:Joao_Silva_Ramalho</title>
<ellipse fill="none" stroke="#000000" cx="852" cy="-540" rx="88.2844" ry="18"/>
<text text-anchor="middle" x="852" y="-536.3" font-family="Times,serif" font-size="14.00" fill="#000000">:Joao_Silva_Ramalho</text>
</g>
<!-- :Abilio_Silva_Ramalho&#45;&gt;:Joao_Silva_Ramalho -->
<g id="edge48" class="edge">
<title>:Abilio_Silva_Ramalho&#45;&gt;:Joao_Silva_Ramalho</title>
<path fill="none" stroke="#000000" d="M1036.987,-782.5892C1033.4532,-772.6764 1028.5862,-760.3862 1023,-750 982.9754,-675.5841 914.8729,-602.1566 877.8402,-565.0041"/>
<polygon fill="#000000" stroke="#000000" points="879.9906,-562.2067 870.4307,-557.6394 875.0559,-567.1714 879.9906,-562.2067"/>
<text text-anchor="middle" x="984.5" y="-666.8" font-family="Times,serif" font-size="14.00" fill="#000000">:tio</text>
</g>
<!-- :Albina_Esteves_Araujo_1910 -->
<g id="node7" class="node">
<title>:Albina_Esteves_Araujo_1910</title>
<ellipse fill="none" stroke="#000000" cx="711" cy="-627" rx="118.8789" ry="18"/>
<text text-anchor="middle" x="711" y="-623.3" font-family="Times,serif" font-size="14.00" fill="#000000">:Albina_Esteves_Araujo_1910</text>
</g>
<!-- :Custodia_Azevedo_1867&#45;&gt;:Albina_Esteves_Araujo_1910 -->
<g id="edge29" class="edge">
<title>:Custodia_Azevedo_1867&#45;&gt;:Albina_Esteves_Araujo_1910</title>
<path fill="none" stroke="#000000" d="M841.7964,-696.8116C816.2893,-683.1973 780.463,-664.0754 752.7538,-649.2858"/>
<polygon fill="#000000" stroke="#000000" points="754.1647,-646.0715 743.6946,-644.4505 750.8686,-652.2469 754.1647,-646.0715"/>
<text text-anchor="middle" x="815" y="-666.8" font-family="Times,serif" font-size="14.00" fill="#000000">:avo</text>
</g>
<!-- :Jose_Antonio_1850 -->
<g id="node9" class="node">
<title>:Jose_Antonio_1850</title>
<ellipse fill="none" stroke="#000000" cx="914" cy="-279" rx="83.3857" ry="18"/>
<text text-anchor="middle" x="914" y="-275.3" font-family="Times,serif" font-size="14.00" fill="#000000">:Jose_Antonio_1850</text>
</g>
<!-- :Custodia_Azevedo_1867&#45;&gt;:Jose_Antonio_1850 -->
<g id="edge31" class="edge">
<title>:Custodia_Azevedo_1867&#45;&gt;:Jose_Antonio_1850</title>
<path fill="none" stroke="#000000" d="M910.0919,-697.1073C948.3452,-677.2538 1007.4894,-640.614 1039,-591 1068.5321,-544.5013 1063.0557,-525.6447 1070,-471 1079.8229,-393.7031 1048.9591,-365.9425 990,-315 982.9418,-308.9015 974.6729,-303.6047 966.2372,-299.0893"/>
<polygon fill="#000000" stroke="#000000" points="967.576,-295.8454 957.0675,-294.4954 964.4405,-302.1039 967.576,-295.8454"/>
<text text-anchor="middle" x="1080" y="-492.8" font-family="Times,serif" font-size="14.00" fill="#000000">:avo</text>
</g>
<!-- :Roberto_Jose_1850 -->
<g id="node10" class="node">
<title>:Roberto_Jose_1850</title>
<ellipse fill="none" stroke="#000000" cx="637" cy="-192" rx="83.3857" ry="18"/>
<text text-anchor="middle" x="637" y="-188.3" font-family="Times,serif" font-size="14.00" fill="#000000">:Roberto_Jose_1850</text>
</g>
<!-- :Custodia_Azevedo_1867&#45;&gt;:Roberto_Jose_1850 -->
<g id="edge33" class="edge">
<title>:Custodia_Azevedo_1867&#45;&gt;:Roberto_Jose_1850</title>
<path fill="none" stroke="#000000" d="M800.6552,-701.3918C789.3918,-699.5337 777.8909,-697.681 767,-696 712.5531,-687.5962 276,-682.0916 276,-627 276,-627 276,-627 276,-496.5 276,-460.95 420.5193,-247.8669 450,-228 466.9701,-216.5639 511.2553,-207.7699 552.47,-201.7369"/>
<polygon fill="#000000" stroke="#000000" points="553.1763,-205.1719 562.5851,-200.301 552.1924,-198.2413 553.1763,-205.1719"/>
<text text-anchor="middle" x="316" y="-449.3" font-family="Times,serif" font-size="14.00" fill="#000000">:avo</text>
</g>
<!-- :Custodia_Azevedo_1867&#45;&gt;:Joana_Silva_Ramalho -->
<g id="edge35" class="edge">
<title>:Custodia_Azevedo_1867&#45;&gt;:Joana_Silva_Ramalho</title>
<path fill="none" stroke="#000000" d="M803.6614,-700.9173C791.472,-699.0085 778.8948,-697.2641 767,-696 590.4803,-677.2412 542.3829,-711.1919 368,-678 323.6786,-669.5639 310.2251,-668.9666 272,-645 197.1799,-598.0888 165.6497,-585.6481 132,-504 75.371,-366.5945 121.0251,-307.6614 186,-174 194.0445,-157.4515 196.8125,-152.7168 211,-141 217.8081,-135.3775 225.6417,-130.355 233.5946,-125.9745"/>
<polygon fill="#000000" stroke="#000000" points="235.3189,-129.0229 242.5761,-121.3039 232.0892,-122.8125 235.3189,-129.0229"/>
<text text-anchor="middle" x="120" y="-405.8" font-family="Times,serif" font-size="14.00" fill="#000000">:avo</text>
</g>
<!-- :Custodia_Azevedo_1867&#45;&gt;:Joao_Silva_Ramalho -->
<g id="edge37" class="edge">
<title>:Custodia_Azevedo_1867&#45;&gt;:Joao_Silva_Ramalho</title>
<path fill="none" stroke="#000000" d="M871.6872,-695.7078C867.848,-665.3436 860.1327,-604.3226 855.584,-568.3464"/>
<polygon fill="#000000" stroke="#000000" points="859.0086,-567.529 854.2818,-558.0471 852.0639,-568.4072 859.0086,-567.529"/>
<text text-anchor="middle" x="878" y="-623.3" font-family="Times,serif" font-size="14.00" fill="#000000">:avo</text>
</g>
<!-- :Manuel_Silva_Ramalho_1866&#45;&gt;:Albina_Esteves_Araujo_1910 -->
<g id="edge30" class="edge">
<title>:Manuel_Silva_Ramalho_1866&#45;&gt;:Albina_Esteves_Araujo_1910</title>
<path fill="none" stroke="#000000" d="M636.9764,-384.1621C631.1998,-424.94 622.7291,-525.3293 666,-591 668.6801,-595.0675 671.9685,-598.89 675.5368,-602.4136"/>
<polygon fill="#000000" stroke="#000000" points="673.3583,-605.1606 683.1492,-609.209 678.0199,-599.9385 673.3583,-605.1606"/>
<text text-anchor="middle" x="648" y="-492.8" font-family="Times,serif" font-size="14.00" fill="#000000">:avo</text>
</g>
<!-- :Manuel_Silva_Ramalho_1866&#45;&gt;:Jose_Antonio_1850 -->
<g id="edge32" class="edge">
<title>:Manuel_Silva_Ramalho_1866&#45;&gt;:Jose_Antonio_1850</title>
<path fill="none" stroke="#000000" d="M691.5373,-349.636C738.6721,-334.6698 808.2786,-312.5685 857.0444,-297.0844"/>
<polygon fill="#000000" stroke="#000000" points="858.3406,-300.3451 866.8125,-293.9829 856.2221,-293.6734 858.3406,-300.3451"/>
<text text-anchor="middle" x="806" y="-318.8" font-family="Times,serif" font-size="14.00" fill="#000000">:avo</text>
</g>
<!-- :Manuel_Silva_Ramalho_1866&#45;&gt;:Roberto_Jose_1850 -->
<g id="edge34" class="edge">
<title>:Manuel_Silva_Ramalho_1866&#45;&gt;:Roberto_Jose_1850</title>
<path fill="none" stroke="#000000" d="M639.6846,-347.7078C639.1611,-317.3436 638.109,-256.3226 637.4887,-220.3464"/>
<polygon fill="#000000" stroke="#000000" points="640.9831,-219.9852 637.3112,-210.0471 633.9842,-220.106 640.9831,-219.9852"/>
<text text-anchor="middle" x="651" y="-275.3" font-family="Times,serif" font-size="14.00" fill="#000000">:avo</text>
</g>
<!-- :Manuel_Silva_Ramalho_1866&#45;&gt;:Joana_Silva_Ramalho -->
<g id="edge36" class="edge">
<title>:Manuel_Silva_Ramalho_1866&#45;&gt;:Joana_Silva_Ramalho</title>
<path fill="none" stroke="#000000" d="M615.8106,-348.2656C553.2512,-302.4004 386.1117,-179.8628 315.8319,-128.3374"/>
<polygon fill="#000000" stroke="#000000" points="317.8891,-125.5058 307.7549,-122.4158 313.7503,-131.1512 317.8891,-125.5058"/>
<text text-anchor="middle" x="483" y="-231.8" font-family="Times,serif" font-size="14.00" fill="#000000">:avo</text>
</g>
<!-- :Manuel_Silva_Ramalho_1866&#45;&gt;:Joao_Silva_Ramalho -->
<g id="edge38" class="edge">
<title>:Manuel_Silva_Ramalho_1866&#45;&gt;:Joao_Silva_Ramalho</title>
<path fill="none" stroke="#000000" d="M682.9371,-382.9706C709.9822,-394.9638 744.6388,-412.8297 771,-435 797.7548,-457.5013 821.2679,-490.2503 835.9722,-513.1741"/>
<polygon fill="#000000" stroke="#000000" points="833.067,-515.1293 841.3492,-521.7367 838.9951,-511.4067 833.067,-515.1293"/>
<text text-anchor="middle" x="817" y="-449.3" font-family="Times,serif" font-size="14.00" fill="#000000">:avo</text>
</g>
<!-- :Rui_Silva_Ramalho&#45;&gt;owl:NamedIndividual -->
<g id="edge5" class="edge">
<title>:Rui_Silva_Ramalho&#45;&gt;owl:NamedIndividual</title>
<path fill="none" stroke="#000000" d="M989.4401,-434.8804C993.1817,-429.3254 997.0298,-423.073 1000,-417 1006.7924,-403.112 1008.3898,-399.2381 1011,-384 1029.2365,-277.536 1028.3424,-248.1874 1015,-141 1010.842,-107.5963 999.9576,-70.4197 991.8183,-45.7727"/>
<polygon fill="#000000" stroke="#000000" points="995.0417,-44.3785 988.5257,-36.0244 988.4098,-46.6186 995.0417,-44.3785"/>
<text text-anchor="middle" x="1046.5" y="-231.8" font-family="Times,serif" font-size="14.00" fill="#000000">rdf:type</text>
</g>
<!-- :Rui_Silva_Ramalho&#45;&gt;:Pessoa -->
<g id="edge6" class="edge">
<title>:Rui_Silva_Ramalho&#45;&gt;:Pessoa</title>
<path fill="none" stroke="#000000" d="M999.7457,-435.3979C1006.1519,-429.9506 1012.7541,-423.626 1018,-417 1109.3066,-301.6716 1119.4315,-261.1317 1170,-123 1179.2388,-97.7636 1185.6684,-67.7697 1189.5311,-46.3138"/>
<polygon fill="#000000" stroke="#000000" points="1193.0189,-46.6837 1191.2703,-36.2341 1186.1209,-45.4934 1193.0189,-46.6837"/>
<text text-anchor="middle" x="1153.5" y="-231.8" font-family="Times,serif" font-size="14.00" fill="#000000">rdf:type</text>
</g>
<!-- :Rui_Silva_Ramalho&#45;&gt;:Custodia_Azevedo_1867 -->
<g id="edge7" class="edge">
<title>:Rui_Silva_Ramalho&#45;&gt;:Custodia_Azevedo_1867</title>
<path fill="none" stroke="#000000" d="M983.8661,-471.2807C991.8856,-492.5893 1001.8563,-528.6313 992,-558 974.1472,-611.1955 930.1815,-660.7111 901.2494,-689.1358"/>
<polygon fill="#000000" stroke="#000000" points="898.6523,-686.7779 893.8826,-696.2384 903.5109,-691.8172 898.6523,-686.7779"/>
<text text-anchor="middle" x="1010" y="-579.8" font-family="Times,serif" font-size="14.00" fill="#000000">:temMae</text>
</g>
<!-- :Rui_Silva_Ramalho&#45;&gt;:Manuel_Silva_Ramalho_1866 -->
<g id="edge8" class="edge">
<title>:Rui_Silva_Ramalho&#45;&gt;:Manuel_Silva_Ramalho_1866</title>
<path fill="none" stroke="#000000" d="M947.1787,-436.0045C937.2497,-430.071 926.0918,-423.3152 916,-417 905.6546,-410.5261 904.4233,-406.2949 893,-402 885.6184,-399.2247 808.3751,-388.4249 741.1597,-379.3717"/>
<polygon fill="#000000" stroke="#000000" points="741.2755,-375.8559 730.8983,-377.9926 740.343,-382.7935 741.2755,-375.8559"/>
<text text-anchor="middle" x="937.5" y="-405.8" font-family="Times,serif" font-size="14.00" fill="#000000">:temPai</text>
</g>
<!-- :Rui_Silva_Ramalho&#45;&gt;:Albina_Esteves_Araujo_1910 -->
<g id="edge44" class="edge">
<title>:Rui_Silva_Ramalho&#45;&gt;:Albina_Esteves_Araujo_1910</title>
<path fill="none" stroke="#000000" d="M976.4827,-471.1816C976.0812,-494.4325 971.8025,-534.4915 949,-558 927.7637,-579.8938 857.0347,-598.703 798.1556,-611.1277"/>
<polygon fill="#000000" stroke="#000000" points="797.1489,-607.7619 788.0678,-613.2194 798.5701,-614.6162 797.1489,-607.7619"/>
<text text-anchor="middle" x="978.5" y="-536.3" font-family="Times,serif" font-size="14.00" fill="#000000">:tio</text>
</g>
<!-- :Rui_Silva_Ramalho&#45;&gt;:Jose_Antonio_1850 -->
<g id="edge45" class="edge">
<title>:Rui_Silva_Ramalho&#45;&gt;:Jose_Antonio_1850</title>
<path fill="none" stroke="#000000" d="M981.0393,-434.708C987.673,-406.4946 995.8973,-351.7805 972,-315 968.5677,-309.7173 964.0601,-305.0763 959.0718,-301.0383"/>
<polygon fill="#000000" stroke="#000000" points="961.0861,-298.1759 950.9226,-295.1835 957.0018,-303.8608 961.0861,-298.1759"/>
<text text-anchor="middle" x="997.5" y="-362.3" font-family="Times,serif" font-size="14.00" fill="#000000">:tio</text>
</g>
<!-- :Rui_Silva_Ramalho&#45;&gt;:Roberto_Jose_1850 -->
<g id="edge46" class="edge">
<title>:Rui_Silva_Ramalho&#45;&gt;:Roberto_Jose_1850</title>
<path fill="none" stroke="#000000" d="M973.0173,-434.5595C970.6064,-424.1627 966.3564,-411.4127 959,-402 874.1864,-293.4785 804.7857,-323.4626 693,-243 682.1607,-235.1979 671.1078,-225.5594 661.717,-216.7695"/>
<polygon fill="#000000" stroke="#000000" points="663.9086,-214.0228 654.2607,-209.6446 659.0726,-219.0837 663.9086,-214.0228"/>
<text text-anchor="middle" x="885.5" y="-318.8" font-family="Times,serif" font-size="14.00" fill="#000000">:tio</text>
</g>
<!-- :Albina_Esteves_Araujo_1910&#45;&gt;:Abilio_Silva_Ramalho -->
<g id="edge12" class="edge">
<title>:Albina_Esteves_Araujo_1910&#45;&gt;:Abilio_Silva_Ramalho</title>
<path fill="none" stroke="#000000" d="M706.696,-645.0697C702.3498,-668.1994 698.9386,-708.1276 720,-732 749.3911,-765.3138 861.5374,-783.5783 945.4913,-792.8067"/>
<polygon fill="#000000" stroke="#000000" points="945.2664,-796.3025 955.5824,-793.8877 946.0121,-789.3423 945.2664,-796.3025"/>
<text text-anchor="middle" x="741.5" y="-710.3" font-family="Times,serif" font-size="14.00" fill="#000000">:temPai</text>
</g>
<!-- :Albina_Esteves_Araujo_1910&#45;&gt;owl:NamedIndividual -->
<g id="edge9" class="edge">
<title>:Albina_Esteves_Araujo_1910&#45;&gt;owl:NamedIndividual</title>
<path fill="none" stroke="#000000" d="M619.1777,-615.4618C525.351,-602.7087 386.7143,-580.9202 338,-558 283.4713,-532.3441 272.721,-517.1768 234,-471 187.5633,-415.6218 171.6296,-399.8287 153,-330 150.7049,-321.3972 152.922,-150.4786 183,-87 191.6166,-68.815 195.7234,-62.4205 214,-54 273.2153,-26.7179 689.3844,-20.1101 883.1618,-18.5105"/>
<polygon fill="#000000" stroke="#000000" points="883.3746,-22.009 893.3464,-18.4294 883.3188,-15.0092 883.3746,-22.009"/>
<text text-anchor="middle" x="174.5" y="-318.8" font-family="Times,serif" font-size="14.00" fill="#000000">rdf:type</text>
</g>
<!-- :Albina_Esteves_Araujo_1910&#45;&gt;:Pessoa -->
<g id="edge10" class="edge">
<title>:Albina_Esteves_Araujo_1910&#45;&gt;:Pessoa</title>
<path fill="none" stroke="#000000" d="M802.4721,-615.3797C820.5355,-613.1818 839.3588,-610.9596 857,-609 897.3933,-604.5132 1002.1007,-608.0351 1039,-591 1132.9819,-547.6119 1340,-339.0139 1340,-235.5 1340,-235.5 1340,-235.5 1340,-105 1340,-57.6062 1282.5237,-35.4358 1239.6963,-25.4944"/>
<polygon fill="#000000" stroke="#000000" points="1240.2299,-22.0289 1229.7156,-23.3325 1238.748,-28.8702 1240.2299,-22.0289"/>
<text text-anchor="middle" x="1334.5" y="-318.8" font-family="Times,serif" font-size="14.00" fill="#000000">rdf:type</text>
</g>
<!-- :Maria_Araujo_1884 -->
<g id="node8" class="node">
<title>:Maria_Araujo_1884</title>
<ellipse fill="none" stroke="#000000" cx="869" cy="-105" rx="85.2851" ry="18"/>
<text text-anchor="middle" x="869" y="-101.3" font-family="Times,serif" font-size="14.00" fill="#000000">:Maria_Araujo_1884</text>
</g>
<!-- :Albina_Esteves_Araujo_1910&#45;&gt;:Maria_Araujo_1884 -->
<g id="edge11" class="edge">
<title>:Albina_Esteves_Araujo_1910&#45;&gt;:Maria_Araujo_1884</title>
<path fill="none" stroke="#000000" d="M703.4624,-608.9542C701.3776,-603.2958 699.3258,-596.9679 698,-591 682.9444,-523.2277 671.1259,-495.0296 706,-435 724.4455,-403.2493 749.6152,-413.8502 771,-384 786.1834,-362.806 838.9741,-199.5817 860.1305,-133.0698"/>
<polygon fill="#000000" stroke="#000000" points="863.5541,-133.8523 863.2437,-123.262 856.8822,-131.7344 863.5541,-133.8523"/>
<text text-anchor="middle" x="813" y="-362.3" font-family="Times,serif" font-size="14.00" fill="#000000">:temMae</text>
</g>
<!-- :Albina_Esteves_Araujo_1910&#45;&gt;:Jose_Antonio_1850 -->
<g id="edge40" class="edge">
<title>:Albina_Esteves_Araujo_1910&#45;&gt;:Jose_Antonio_1850</title>
<path fill="none" stroke="#000000" d="M706.6186,-609.0021C698.6626,-571.5388 686.4236,-484.5524 730,-435 753.4947,-408.2834 775.7378,-431.9977 808,-417 830.1664,-406.6955 835.6925,-402.2098 852,-384 876.1502,-357.0326 895.7006,-319.2428 906.0208,-297.1211"/>
<text text-anchor="middle" x="748.5" y="-449.3" font-family="Times,serif" font-size="14.00" fill="#000000">:irmao</text>
</g>
<!-- :Albina_Esteves_Araujo_1910&#45;&gt;:Roberto_Jose_1850 -->
<g id="edge41" class="edge">
<title>:Albina_Esteves_Araujo_1910&#45;&gt;:Roberto_Jose_1850</title>
<path fill="none" stroke="#000000" d="M665.2832,-610.3778C596.46,-582.5405 468.7867,-519.2657 417,-417 404.0436,-391.4145 389.966,-356.827 480,-261 506.5027,-232.792 546.5748,-215.4395 579.6004,-205.1914"/>
<text text-anchor="middle" x="435.5" y="-405.8" font-family="Times,serif" font-size="14.00" fill="#000000">:irmao</text>
</g>
<!-- :Albina_Esteves_Araujo_1910&#45;&gt;:Joana_Silva_Ramalho -->
<g id="edge49" class="edge">
<title>:Albina_Esteves_Araujo_1910&#45;&gt;:Joana_Silva_Ramalho</title>
<path fill="none" stroke="#000000" d="M621.9906,-615.0561C475.5857,-589.8616 200,-516.651 200,-322.5 200,-322.5 200,-322.5 200,-192 200,-161.1367 227.6971,-137.0317 251.2829,-122.1"/>
<text text-anchor="middle" x="228.5" y="-362.3" font-family="Times,serif" font-size="14.00" fill="#000000">:primo</text>
</g>
<!-- :Albina_Esteves_Araujo_1910&#45;&gt;:Joao_Silva_Ramalho -->
<g id="edge52" class="edge">
<title>:Albina_Esteves_Araujo_1910&#45;&gt;:Joao_Silva_Ramalho</title>
<path fill="none" stroke="#000000" d="M739.5335,-609.3943C764.1573,-594.2008 799.5202,-572.3812 823.9902,-557.2827"/>
<text text-anchor="middle" x="808.5" y="-579.8" font-family="Times,serif" font-size="14.00" fill="#000000">:primo</text>
</g>
<!-- :Jose_Antonio_1850&#45;&gt;:Abilio_Silva_Ramalho -->
<g id="edge16" class="edge">
<title>:Jose_Antonio_1850&#45;&gt;:Abilio_Silva_Ramalho</title>
<path fill="none" stroke="#000000" d="M967.6814,-292.8977C1051.258,-318.1419 1203,-380.0149 1203,-496.5 1203,-714 1203,-714 1203,-714 1203,-753.2047 1165.4657,-774.8415 1126.7561,-786.7313"/>
<polygon fill="#000000" stroke="#000000" points="1125.5624,-783.4323 1116.9115,-789.5488 1127.4886,-790.1621 1125.5624,-783.4323"/>
<text text-anchor="middle" x="1224.5" y="-536.3" font-family="Times,serif" font-size="14.00" fill="#000000">:temPai</text>
</g>
<!-- :Jose_Antonio_1850&#45;&gt;owl:NamedIndividual -->
<g id="edge13" class="edge">
<title>:Jose_Antonio_1850&#45;&gt;owl:NamedIndividual</title>
<path fill="none" stroke="#000000" d="M925.4354,-260.9615C933.4994,-247.434 943.9096,-228.1942 950,-210 968.7942,-153.8548 976.8517,-84.6285 980.0658,-46.5246"/>
<polygon fill="#000000" stroke="#000000" points="983.5835,-46.4374 980.8816,-36.1929 976.6052,-45.8863 983.5835,-46.4374"/>
<text text-anchor="middle" x="989.5" y="-144.8" font-family="Times,serif" font-size="14.00" fill="#000000">rdf:type</text>
</g>
<!-- :Jose_Antonio_1850&#45;&gt;:Pessoa -->
<g id="edge14" class="edge">
<title>:Jose_Antonio_1850&#45;&gt;:Pessoa</title>
<path fill="none" stroke="#000000" d="M933.6031,-261.5009C940.1184,-255.6468 947.3947,-249.0675 954,-243 1033.3923,-170.0723 1126.1818,-82.3689 1169.4527,-41.3241"/>
<polygon fill="#000000" stroke="#000000" points="1172.0972,-43.6397 1176.9417,-34.2172 1167.2787,-38.5621 1172.0972,-43.6397"/>
<text text-anchor="middle" x="1085.5" y="-144.8" font-family="Times,serif" font-size="14.00" fill="#000000">rdf:type</text>
</g>
<!-- :Jose_Antonio_1850&#45;&gt;:Maria_Araujo_1884 -->
<g id="edge15" class="edge">
<title>:Jose_Antonio_1850&#45;&gt;:Maria_Araujo_1884</title>
<path fill="none" stroke="#000000" d="M909.2693,-260.7078C901.3826,-230.2127 885.499,-168.796 876.211,-132.8826"/>
<polygon fill="#000000" stroke="#000000" points="879.5598,-131.8522 873.6674,-123.0471 872.7827,-133.6049 879.5598,-131.8522"/>
<text text-anchor="middle" x="921" y="-188.3" font-family="Times,serif" font-size="14.00" fill="#000000">:temMae</text>
</g>
<!-- :Jose_Antonio_1850&#45;&gt;:Roberto_Jose_1850 -->
<g id="edge42" class="edge">
<title>:Jose_Antonio_1850&#45;&gt;:Roberto_Jose_1850</title>
<path fill="none" stroke="#000000" d="M836.0401,-272.6248C797.9066,-267.6252 751.9481,-258.7432 713,-243 711.5728,-242.4231 684.0129,-223.8486 662.4885,-209.2819"/>
<text text-anchor="middle" x="731.5" y="-231.8" font-family="Times,serif" font-size="14.00" fill="#000000">:irmao</text>
</g>
<!-- :Jose_Antonio_1850&#45;&gt;:Joana_Silva_Ramalho -->
<g id="edge50" class="edge">
<title>:Jose_Antonio_1850&#45;&gt;:Joana_Silva_Ramalho</title>
<path fill="none" stroke="#000000" d="M889.8841,-261.6896C855.7712,-238.0744 790.6894,-196.1692 729,-174 610.9145,-131.5638 465.9809,-115.2168 374.2801,-108.926"/>
<text text-anchor="middle" x="824.5" y="-188.3" font-family="Times,serif" font-size="14.00" fill="#000000">:primo</text>
</g>
<!-- :Jose_Antonio_1850&#45;&gt;:Joao_Silva_Ramalho -->
<g id="edge53" class="edge">
<title>:Jose_Antonio_1850&#45;&gt;:Joao_Silva_Ramalho</title>
<path fill="none" stroke="#000000" d="M914.4548,-297.0006C914.0943,-319.6924 910.2548,-358.776 890,-384 878.2992,-398.5714 861.9933,-386.2086 852,-402 828.5546,-439.0484 838.6288,-493.6474 846.2807,-521.7733"/>
<text text-anchor="middle" x="870.5" y="-405.8" font-family="Times,serif" font-size="14.00" fill="#000000">:primo</text>
</g>
<!-- :Roberto_Jose_1850&#45;&gt;:Abilio_Silva_Ramalho -->
<g id="edge20" class="edge">
<title>:Roberto_Jose_1850&#45;&gt;:Abilio_Silva_Ramalho</title>
<path fill="none" stroke="#000000" d="M564.2763,-200.8018C514.866,-207.5199 454.3975,-217.4005 431,-228 409.6929,-237.6524 406.1162,-244.0463 390,-261 363.9071,-288.4488 372.5817,-310.6944 340,-330 285.27,-362.429 252.6316,-315.4055 198,-348 169.1381,-365.2197 154,-375.8915 154,-409.5 154,-714 154,-714 154,-714 154,-753.1326 706.818,-784.6479 940.5827,-796.2252"/>
<polygon fill="#000000" stroke="#000000" points="940.6338,-799.7318 950.7939,-796.7282 940.9783,-792.7403 940.6338,-799.7318"/>
<text text-anchor="middle" x="175.5" y="-492.8" font-family="Times,serif" font-size="14.00" fill="#000000">:temPai</text>
</g>
<!-- :Roberto_Jose_1850&#45;&gt;owl:NamedIndividual -->
<g id="edge17" class="edge">
<title>:Roberto_Jose_1850&#45;&gt;owl:NamedIndividual</title>
<path fill="none" stroke="#000000" d="M635.0872,-173.6663C633.7371,-150.251 635.2699,-110.0145 658,-87 689.9899,-54.6099 806.3236,-35.8926 890.4479,-26.3245"/>
<polygon fill="#000000" stroke="#000000" points="890.9874,-29.7861 900.5395,-25.2027 890.214,-22.829 890.9874,-29.7861"/>
<text text-anchor="middle" x="679.5" y="-101.3" font-family="Times,serif" font-size="14.00" fill="#000000">rdf:type</text>
</g>
<!-- :Roberto_Jose_1850&#45;&gt;:Pessoa -->
<g id="edge18" class="edge">
<title>:Roberto_Jose_1850&#45;&gt;:Pessoa</title>
<path fill="none" stroke="#000000" d="M653.758,-174.2954C666.7768,-160.4545 685.2122,-140.6642 701,-123 715.0707,-107.257 713.4997,-97.1767 732,-87 868.5788,-11.8701 924.8852,-59.3861 1079,-36 1102.0078,-32.5087 1127.5863,-28.5161 1148.7671,-25.1797"/>
<polygon fill="#000000" stroke="#000000" points="1149.4489,-28.6155 1158.7812,-23.5996 1148.3579,-21.7011 1149.4489,-28.6155"/>
<text text-anchor="middle" x="753.5" y="-101.3" font-family="Times,serif" font-size="14.00" fill="#000000">rdf:type</text>
</g>
<!-- :Roberto_Jose_1850&#45;&gt;:Maria_Araujo_1884 -->
<g id="edge19" class="edge">
<title>:Roberto_Jose_1850&#45;&gt;:Maria_Araujo_1884</title>
<path fill="none" stroke="#000000" d="M683.7803,-177.0146C700.0135,-171.1968 718.1182,-164.0004 734,-156 744.8992,-150.5096 745.9816,-146.2473 757,-141 772.2706,-133.7277 789.3816,-127.3932 805.5443,-122.1508"/>
<polygon fill="#000000" stroke="#000000" points="806.9729,-125.3705 815.4605,-119.0292 804.8709,-118.6935 806.9729,-125.3705"/>
<text text-anchor="middle" x="782" y="-144.8" font-family="Times,serif" font-size="14.00" fill="#000000">:temMae</text>
</g>
<!-- :Roberto_Jose_1850&#45;&gt;:Joana_Silva_Ramalho -->
<g id="edge51" class="edge">
<title>:Roberto_Jose_1850&#45;&gt;:Joana_Silva_Ramalho</title>
<path fill="none" stroke="#000000" d="M584.4184,-177.983C544.7903,-167.5175 489.0716,-153.0118 440,-141 408.6822,-133.334 373.7159,-125.2237 344.8378,-118.6458"/>
<text text-anchor="middle" x="518.5" y="-144.8" font-family="Times,serif" font-size="14.00" fill="#000000">:primo</text>
</g>
<!-- :Roberto_Jose_1850&#45;&gt;:Joao_Silva_Ramalho -->
<g id="edge54" class="edge">
<title>:Roberto_Jose_1850&#45;&gt;:Joao_Silva_Ramalho</title>
<path fill="none" stroke="#000000" d="M602.8837,-208.6081C541.923,-240.5748 424.8848,-313.727 472,-384 538.6201,-483.3647 681.0971,-519.4911 771.4114,-532.5904"/>
<text text-anchor="middle" x="490.5" y="-362.3" font-family="Times,serif" font-size="14.00" fill="#000000">:primo</text>
</g>
<!-- :Joana_Silva_Ramalho&#45;&gt;owl:NamedIndividual -->
<g id="edge21" class="edge">
<title>:Joana_Silva_Ramalho&#45;&gt;owl:NamedIndividual</title>
<path fill="none" stroke="#000000" d="M315.3044,-88.0603C338.7312,-76.2689 371.9486,-61.385 403,-54 491.4206,-32.9708 742.9541,-23.6997 883.6581,-20.06"/>
<polygon fill="#000000" stroke="#000000" points="884.101,-23.55 894.0089,-19.7972 883.9233,-16.5522 884.101,-23.55"/>
<text text-anchor="middle" x="424.5" y="-57.8" font-family="Times,serif" font-size="14.00" fill="#000000">rdf:type</text>
</g>
<!-- :Joana_Silva_Ramalho&#45;&gt;:Pessoa -->
<g id="edge22" class="edge">
<title>:Joana_Silva_Ramalho&#45;&gt;:Pessoa</title>
<path fill="none" stroke="#000000" d="M371.8458,-99.3562C518.6165,-89.4831 822.8539,-67.1247 1079,-36 1102.1875,-33.1825 1127.8801,-29.2397 1149.0887,-25.7623"/>
<polygon fill="#000000" stroke="#000000" points="1149.8172,-29.1893 1159.1094,-24.0995 1148.6713,-22.2837 1149.8172,-29.1893"/>
<text text-anchor="middle" x="927.5" y="-57.8" font-family="Times,serif" font-size="14.00" fill="#000000">rdf:type</text>
</g>
<!-- :Joana_Silva_Ramalho&#45;&gt;:Rui_Silva_Ramalho -->
<g id="edge24" class="edge">
<title>:Joana_Silva_Ramalho&#45;&gt;:Rui_Silva_Ramalho</title>
<path fill="none" stroke="#000000" d="M284.8989,-123.0933C287.4992,-159.2556 297.5378,-241.7228 336,-297 374.0368,-351.6659 396.0542,-359.5485 458,-384 468.0309,-387.9594 749.0515,-424.1182 892.8824,-442.4485"/>
<polygon fill="#000000" stroke="#000000" points="892.6334,-445.945 902.9955,-443.7368 893.518,-439.0011 892.6334,-445.945"/>
<text text-anchor="middle" x="357.5" y="-275.3" font-family="Times,serif" font-size="14.00" fill="#000000">:temPai</text>
</g>
<!-- :Lola_Azevedo_1867 -->
<g id="node12" class="node">
<title>:Lola_Azevedo_1867</title>
<ellipse fill="none" stroke="#000000" cx="165" cy="-18" rx="87.1846" ry="18"/>
<text text-anchor="middle" x="165" y="-14.3" font-family="Times,serif" font-size="14.00" fill="#000000">:Lola_Azevedo_1867</text>
</g>
<!-- :Joana_Silva_Ramalho&#45;&gt;:Lola_Azevedo_1867 -->
<g id="edge23" class="edge">
<title>:Joana_Silva_Ramalho&#45;&gt;:Lola_Azevedo_1867</title>
<path fill="none" stroke="#000000" d="M260.2046,-87.6033C242.044,-74.3263 216.8414,-55.9008 196.9285,-41.3427"/>
<polygon fill="#000000" stroke="#000000" points="198.8925,-38.443 188.7542,-35.3665 194.7612,-44.0938 198.8925,-38.443"/>
<text text-anchor="middle" x="257" y="-57.8" font-family="Times,serif" font-size="14.00" fill="#000000">:temMae</text>
</g>
<!-- :Joana_Silva_Ramalho&#45;&gt;:Joao_Silva_Ramalho -->
<g id="edge43" class="edge">
<title>:Joana_Silva_Ramalho&#45;&gt;:Joao_Silva_Ramalho</title>
<path fill="none" stroke="#000000" d="M281.1571,-123.2548C275.8184,-163.7947 268.2234,-263.0278 309,-330 329.6175,-363.8626 347.4972,-361.2993 380,-384 473.5588,-449.3435 496.342,-476.1105 607,-504 661.1942,-517.6587 723.5264,-526.7288 771.7562,-532.3483"/>
<text text-anchor="middle" x="327.5" y="-318.8" font-family="Times,serif" font-size="14.00" fill="#000000">:irmao</text>
</g>
<!-- :Joao_Silva_Ramalho&#45;&gt;owl:NamedIndividual -->
<g id="edge25" class="edge">
<title>:Joao_Silva_Ramalho&#45;&gt;owl:NamedIndividual</title>
<path fill="none" stroke="#000000" d="M913.4825,-527.0042C969.7206,-513.9973 1047.4841,-492.8303 1070,-471 1147.1011,-396.2467 1131.9661,-348.8651 1150,-243 1151.1195,-236.428 1152.5297,-234.1681 1150,-228 1132.9468,-186.4194 1107.3708,-190.8547 1079,-156 1044.6054,-113.7448 1043.2335,-97.926 1011,-54 1008.6111,-50.7446 1006.0411,-47.3782 1003.4534,-44.0703"/>
<polygon fill="#000000" stroke="#000000" points="1006.0453,-41.7066 997.0777,-36.0644 1000.5695,-46.0673 1006.0453,-41.7066"/>
<text text-anchor="middle" x="1169.5" y="-275.3" font-family="Times,serif" font-size="14.00" fill="#000000">rdf:type</text>
</g>
<!-- :Joao_Silva_Ramalho&#45;&gt;:Pessoa -->
<g id="edge26" class="edge">
<title>:Joao_Silva_Ramalho&#45;&gt;:Pessoa</title>
<path fill="none" stroke="#000000" d="M916.0201,-527.5426C967.276,-517.5369 1031.0999,-504.9916 1034,-504 1184.0553,-452.6921 1269,-394.0846 1269,-235.5 1269,-235.5 1269,-235.5 1269,-105 1269,-76.9568 1246.3689,-53.4706 1225.9699,-37.997"/>
<polygon fill="#000000" stroke="#000000" points="1227.8914,-35.0677 1217.7305,-32.0666 1223.8021,-40.7491 1227.8914,-35.0677"/>
<text text-anchor="middle" x="1289.5" y="-275.3" font-family="Times,serif" font-size="14.00" fill="#000000">rdf:type</text>
</g>
<!-- :Joao_Silva_Ramalho&#45;&gt;:Rui_Silva_Ramalho -->
<g id="edge28" class="edge">
<title>:Joao_Silva_Ramalho&#45;&gt;:Rui_Silva_Ramalho</title>
<path fill="none" stroke="#000000" d="M863.5179,-522.1255C871.1373,-511.4099 881.9265,-498.1361 894,-489 902.3619,-482.6725 912.0095,-477.1802 921.6848,-472.5224"/>
<polygon fill="#000000" stroke="#000000" points="923.2788,-475.6424 930.9286,-468.3122 920.3773,-469.272 923.2788,-475.6424"/>
<text text-anchor="middle" x="915.5" y="-492.8" font-family="Times,serif" font-size="14.00" fill="#000000">:temPai</text>
</g>
<!-- :Joao_Silva_Ramalho&#45;&gt;:Lola_Azevedo_1867 -->
<g id="edge27" class="edge">
<title>:Joao_Silva_Ramalho&#45;&gt;:Lola_Azevedo_1867</title>
<path fill="none" stroke="#000000" d="M781.9516,-529.0005C738.2275,-522.0455 680.7918,-512.7476 630,-504 549.4158,-490.1214 525.2928,-500.425 449,-471 352.3424,-433.7206 340.4428,-400.2726 251,-348 228.5677,-334.89 46,-261.4822 46,-235.5 46,-235.5 46,-235.5 46,-105 46,-72.0661 76.0704,-50.2587 105.9794,-36.7137"/>
<polygon fill="#000000" stroke="#000000" points="107.397,-39.9142 115.2228,-32.7722 104.6513,-33.4751 107.397,-39.9142"/>
<text text-anchor="middle" x="166" y="-275.3" font-family="Times,serif" font-size="14.00" fill="#000000">:temMae</text>
</g>
</g>
</svg>
