<?xml version="1.0" encoding="UTF-8" standalone="no"?>
<!DOCTYPE svg PUBLIC "-//W3C//DTD SVG 1.1//EN"
 "http://www.w3.org/Graphics/SVG/1.1/DTD/svg11.dtd">
<!-- Generated by graphviz version 2.40.1 (20161225.0304)
 -->
<!-- Title: %3 Pages: 1 -->
<svg width="396pt" height="188pt"
 viewBox="0.00 0.00 396.00 188.00" xmlns="http://www.w3.org/2000/svg" xmlns:xlink="http://www.w3.org/1999/xlink">
<g id="graph0" class="graph" transform="scale(1 1) rotate(0) translate(4 184)">
<title>%3</title>
<polygon fill="#ffffff" stroke="transparent" points="-4,4 -4,-184 392,-184 392,4 -4,4"/>
<!-- Custodia&#45;Manuel -->
<g id="node1" class="node">
<title>Custodia&#45;Manuel</title>
<ellipse fill="none" stroke="#000000" cx="198" cy="-162" rx="72.2875" ry="18"/>
<text text-anchor="middle" x="198" y="-158.3" font-family="Times,serif" font-size="14.00" fill="#000000">Custodia&#45;Manuel</text>
</g>
<!-- Abilio&#45;&#39;Maria&#39; -->
<g id="node2" class="node">
<title>Abilio&#45;&#39;Maria&#39;</title>
<ellipse fill="none" stroke="#000000" cx="136" cy="-90" rx="60.3893" ry="18"/>
<text text-anchor="middle" x="136" y="-86.3" font-family="Times,serif" font-size="14.00" fill="#000000">Abilio&#45;&#39;Maria&#39;</text>
</g>
<!-- Custodia&#45;Manuel&#45;&gt;Abilio&#45;&#39;Maria&#39; -->
<g id="edge1" class="edge">
<title>Custodia&#45;Manuel&#45;&gt;Abilio&#45;&#39;Maria&#39;</title>
<path fill="none" stroke="#000000" d="M182.6742,-144.2022C175.1661,-135.4832 165.9934,-124.8311 157.7731,-115.2849"/>
<polygon fill="#000000" stroke="#000000" points="160.327,-112.8869 151.1496,-107.593 155.0226,-117.4546 160.327,-112.8869"/>
</g>
<!-- Rui&#45;&#39;Lola&#39; -->
<g id="node3" class="node">
<title>Rui&#45;&#39;Lola&#39;</title>
<ellipse fill="none" stroke="#000000" cx="285" cy="-90" rx="45.4919" ry="18"/>
<text text-anchor="middle" x="285" y="-86.3" font-family="Times,serif" font-size="14.00" fill="#000000">Rui&#45;&#39;Lola&#39;</text>
</g>
<!-- Custodia&#45;Manuel&#45;&gt;Rui&#45;&#39;Lola&#39; -->
<g id="edge2" class="edge">
<title>Custodia&#45;Manuel&#45;&gt;Rui&#45;&#39;Lola&#39;</title>
<path fill="none" stroke="#000000" d="M219.0603,-144.5708C230.611,-135.0116 245.0686,-123.0467 257.5003,-112.7584"/>
<polygon fill="#000000" stroke="#000000" points="259.8538,-115.3538 265.3263,-106.2817 255.3908,-109.961 259.8538,-115.3538"/>
</g>
<!-- Jose -->
<g id="node4" class="node">
<title>Jose</title>
<ellipse fill="none" stroke="#000000" cx="27" cy="-18" rx="27" ry="18"/>
<text text-anchor="middle" x="27" y="-14.3" font-family="Times,serif" font-size="14.00" fill="#000000">Jose</text>
</g>
<!-- Abilio&#45;&#39;Maria&#39;&#45;&gt;Jose -->
<g id="edge3" class="edge">
<title>Abilio&#45;&#39;Maria&#39;&#45;&gt;Jose</title>
<path fill="none" stroke="#000000" d="M110.9932,-73.4817C94.2941,-62.4511 72.3084,-47.9285 55.0195,-36.5083"/>
<polygon fill="#000000" stroke="#000000" points="56.7326,-33.4453 46.4595,-30.854 52.8744,-39.2861 56.7326,-33.4453"/>
</g>
<!-- Roberto -->
<g id="node5" class="node">
<title>Roberto</title>
<ellipse fill="none" stroke="#000000" cx="111" cy="-18" rx="38.9931" ry="18"/>
<text text-anchor="middle" x="111" y="-14.3" font-family="Times,serif" font-size="14.00" fill="#000000">Roberto</text>
</g>
<!-- Abilio&#45;&#39;Maria&#39;&#45;&gt;Roberto -->
<g id="edge4" class="edge">
<title>Abilio&#45;&#39;Maria&#39;&#45;&gt;Roberto</title>
<path fill="none" stroke="#000000" d="M129.6914,-71.8314C126.9169,-63.8406 123.5979,-54.2819 120.5317,-45.4514"/>
<polygon fill="#000000" stroke="#000000" points="123.8065,-44.2121 117.2199,-35.9134 117.1938,-46.5082 123.8065,-44.2121"/>
</g>
<!-- Albina -->
<g id="node6" class="node">
<title>Albina</title>
<ellipse fill="none" stroke="#000000" cx="202" cy="-18" rx="34.394" ry="18"/>
<text text-anchor="middle" x="202" y="-14.3" font-family="Times,serif" font-size="14.00" fill="#000000">Albina</text>
</g>
<!-- Abilio&#45;&#39;Maria&#39;&#45;&gt;Albina -->
<g id="edge5" class="edge">
<title>Abilio&#45;&#39;Maria&#39;&#45;&gt;Albina</title>
<path fill="none" stroke="#000000" d="M151.9768,-72.5708C160.4056,-63.3758 170.8747,-51.9548 180.0539,-41.9413"/>
<polygon fill="#000000" stroke="#000000" points="182.8979,-44.0183 187.0751,-34.2817 177.7378,-39.2882 182.8979,-44.0183"/>
</g>
<!-- Joana -->
<g id="node7" class="node">
<title>Joana</title>
<ellipse fill="none" stroke="#000000" cx="285" cy="-18" rx="30.5947" ry="18"/>
<text text-anchor="middle" x="285" y="-14.3" font-family="Times,serif" font-size="14.00" fill="#000000">Joana</text>
</g>
<!-- Rui&#45;&#39;Lola&#39;&#45;&gt;Joana -->
<g id="edge6" class="edge">
<title>Rui&#45;&#39;Lola&#39;&#45;&gt;Joana</title>
<path fill="none" stroke="#000000" d="M285,-71.8314C285,-64.131 285,-54.9743 285,-46.4166"/>
<polygon fill="#000000" stroke="#000000" points="288.5001,-46.4132 285,-36.4133 281.5001,-46.4133 288.5001,-46.4132"/>
</g>
<!-- Joao -->
<g id="node8" class="node">
<title>Joao</title>
<ellipse fill="none" stroke="#000000" cx="361" cy="-18" rx="27" ry="18"/>
<text text-anchor="middle" x="361" y="-14.3" font-family="Times,serif" font-size="14.00" fill="#000000">Joao</text>
</g>
<!-- Rui&#45;&#39;Lola&#39;&#45;&gt;Joao -->
<g id="edge7" class="edge">
<title>Rui&#45;&#39;Lola&#39;&#45;&gt;Joao</title>
<path fill="none" stroke="#000000" d="M302.627,-73.3008C313.1016,-63.3774 326.5085,-50.6762 337.8314,-39.9492"/>
<polygon fill="#000000" stroke="#000000" points="340.4234,-42.3149 345.2758,-32.8966 335.6091,-37.2332 340.4234,-42.3149"/>
</g>
</g>
</svg>
